<?xml version="1.0" encoding="UTF-8"?>
<svg id="Calque_2" data-name="Calque 2" xmlns="http://www.w3.org/2000/svg" viewBox="0 0 244.39 128.6">
  <defs>
    <style>
      .cls-1 {
        fill: #009245;
      }

      .cls-2 {
        fill: #ff7f00;
      }

      .cls-3 {
        fill: #fff4eb;
      }
    </style>
  </defs>
  <g id="Calque_1-2" data-name="Calque 1">
    <g>
      <path class="cls-3" d="m227.99,35.66c19.53,10.09,27.44,39.47-9.8,65.45-31.72,22.12-108.63,19.1-151.78,12.13C9.62,104.07,2.39,83.34,40.5,58.8c27.23-17.53,85.98-47.57,124.3-43.6,17.97,1.86,57.2,17.37,63.19,20.47Z"/>
      <path class="cls-2" d="m78.06,56.89V0h45.46v13.63h-27.19v7.57h22.99v13.05h-22.99v8.81h28.31v13.83h-46.58Z"/>
      <path class="cls-2" d="m127.57,56.89L147.57,0h18.5l20.01,56.89h-18.11l-2.12-7.53h-18.11l-2.2,7.53h-17.96Zm23.48-19.46h11.47l-5.68-19.7-5.79,19.7Z"/>
      <path class="cls-2" d="m200.45,56.89V14.98h-16.37V0h51.02v14.98h-16.37v41.9h-18.27Z"/>
      <g>
        <path class="cls-1" d="m127.69,81.48c0,3.09-.21,6.14-.62,9.15-.41,3.01-.9,5.99-1.47,8.92-.15.77-.39,2.02-.7,3.75-.31,1.73-.68,3.64-1.12,5.75-.44,2.11-.97,4.3-1.58,6.57-.62,2.27-1.3,4.33-2.05,6.18s-1.57,3.39-2.47,4.6-1.87,1.82-2.9,1.82-2.02-.52-2.97-1.54-1.83-2.33-2.63-3.9c-.8-1.57-1.53-3.33-2.2-5.29-.67-1.96-1.25-3.85-1.74-5.68-.49-1.83-.9-3.5-1.24-5.02-.34-1.52-.58-2.66-.73-3.44-.21.67-.53,1.74-.96,3.21-.44,1.47-.99,3.12-1.66,4.94-.67,1.83-1.42,3.7-2.24,5.6-.82,1.91-1.69,3.66-2.59,5.25-.9,1.6-1.84,2.91-2.82,3.94-.98,1.03-1.96,1.54-2.94,1.54-1.29,0-2.42-.57-3.4-1.7-.98-1.13-1.8-2.59-2.47-4.36-.67-1.78-1.24-3.76-1.7-5.95-.46-2.19-.82-4.35-1.08-6.49-.26-2.14-.46-4.13-.62-5.99s-.26-3.32-.31-4.4c-.15-2.47-.3-4.89-.42-7.26-.13-2.37-.19-4.79-.19-7.26,0-.87.03-2.07.08-3.59.05-1.52.24-3.01.58-4.48.33-1.47.85-2.75,1.54-3.86.69-1.11,1.71-1.71,3.05-1.82,1.13-.05,2.11.41,2.94,1.39.82.98,1.52,2.28,2.09,3.9.57,1.62,1.02,3.43,1.35,5.41.33,1.98.59,3.9.77,5.75.18,1.85.3,3.55.35,5.1.05,1.54.05,2.68,0,3.4l-.08,2.01c.15-.67.42-1.72.81-3.17.38-1.44.86-3.08,1.43-4.9.57-1.83,1.17-3.71,1.82-5.64.64-1.93,1.32-3.69,2.05-5.29.72-1.6,1.44-2.92,2.16-3.98.72-1.05,1.42-1.61,2.09-1.66.88-.05,1.71.46,2.51,1.54.8,1.08,1.52,2.49,2.16,4.21.64,1.73,1.22,3.64,1.74,5.75.51,2.11.96,4.16,1.35,6.14.38,1.98.68,3.77.89,5.37.2,1.6.36,2.73.46,3.4.05-.82.18-2.12.39-3.9.2-1.78.49-3.76.85-5.95.36-2.19.81-4.43,1.35-6.72.54-2.29,1.17-4.39,1.89-6.3.72-1.9,1.54-3.46,2.47-4.67.93-1.21,1.96-1.82,3.09-1.82,1.29,0,2.32.42,3.09,1.27s1.34,1.88,1.7,3.09c.36,1.21.59,2.47.7,3.78.1,1.31.15,2.41.15,3.28Z"/>
        <path class="cls-1" d="m164.46,114.69c0,.98-.26,1.93-.77,2.86-.51.88-1.73,1.91-3.63,3.09-1.91,1.19-4.02,2.31-6.33,3.36-2.32,1.06-4.56,1.96-6.72,2.7s-3.76,1.12-4.79,1.12c-.72,0-1.57-.17-2.55-.5-.98-.34-1.96-.76-2.94-1.27-.98-.51-1.87-1.11-2.66-1.78-.8-.67-1.38-1.31-1.74-1.93-.21-.36-.4-1.08-.58-2.16-.18-1.08-.34-2.34-.46-3.78-.13-1.44-.25-2.97-.35-4.6-.1-1.62-.19-3.17-.27-4.63-.08-1.47-.13-2.77-.15-3.9-.03-1.13-.04-1.96-.04-2.47,0-1.9.06-4.09.19-6.57.13-2.47.37-4.96.73-7.45.36-2.5.89-4.89,1.58-7.18.69-2.29,1.63-4.23,2.82-5.83.36-.46,1.08-.95,2.16-1.47,1.08-.51,2.36-1,3.82-1.47,1.47-.46,3.05-.9,4.75-1.31,1.7-.41,3.33-.76,4.9-1.04,1.57-.28,3-.51,4.29-.7,1.29-.18,2.27-.27,2.94-.27.77,0,1.51.17,2.2.5.7.34,1.29.79,1.78,1.35.49.57.87,1.2,1.16,1.89s.43,1.43.43,2.2c0,.67-.09,1.24-.27,1.7s-.45.98-.81,1.54c-.51.67-1.6,1.47-3.24,2.39-1.65.93-3.44,1.84-5.37,2.74-1.93.9-3.78,1.71-5.56,2.43-1.78.72-3.02,1.24-3.75,1.54-.21,1.19-.43,2.38-.66,3.59-.23,1.21-.4,2.43-.5,3.67,1.59-.82,3.4-1.6,5.41-2.32,2.01-.72,3.91-1.08,5.72-1.08,3.66,0,5.48,1.8,5.48,5.41,0,.88-.17,1.65-.5,2.32-.34.67-.77,1.26-1.31,1.78-.54.52-1.16.97-1.85,1.35-.69.39-1.38.76-2.05,1.12-1.65.88-3.37,1.64-5.18,2.28-1.8.64-3.6,1.27-5.41,1.89-.1.41-.21.86-.31,1.35-.1.49-.15.97-.15,1.43,0,.72.05,1.44.15,2.16.1.72.2,1.44.31,2.16.62-.21,1.61-.54,2.97-1,1.36-.46,2.79-.93,4.29-1.39,1.49-.46,2.94-.86,4.33-1.2,1.39-.33,2.42-.5,3.09-.5.77,0,1.49.17,2.16.5.67.34,1.24.77,1.7,1.31s.84,1.17,1.12,1.89c.28.72.42,1.44.42,2.16Z"/>
        <path class="cls-1" d="m204.78,116.16c0,1.29-.53,2.5-1.58,3.63-1.06,1.13-2.42,2.16-4.1,3.09s-3.54,1.74-5.6,2.43c-2.06.7-4.09,1.29-6.1,1.78s-3.9.86-5.68,1.12c-1.78.26-3.18.39-4.21.39s-2.02-.09-3.13-.27c-1.11-.18-2.02-.58-2.74-1.2-.41-.31-.77-1-1.08-2.09s-.61-2.37-.89-3.86c-.28-1.49-.53-3.1-.73-4.83-.21-1.72-.37-3.41-.5-5.06-.13-1.65-.23-3.17-.31-4.56-.08-1.39-.12-2.47-.12-3.24,0-1.29.04-2.84.12-4.67.08-1.83.19-3.78.35-5.87s.36-4.21.62-6.37c.26-2.16.55-4.21.89-6.14.33-1.93.75-3.67,1.24-5.21.49-1.54,1.01-2.75,1.58-3.63.98-1.39,2.21-2.09,3.71-2.09,1.03,0,1.9.35,2.63,1.04.72.7,1.3,1.6,1.74,2.7.44,1.11.77,2.34,1.01,3.71.23,1.37.4,2.72.5,4.06.1,1.34.15,2.58.15,3.71v2.7c0,4.02-.09,7.99-.27,11.93s-.27,7.92-.27,11.93v3.01c2.32-.72,4.84-1.4,7.57-2.05,2.73-.64,5.33-.97,7.8-.97.88,0,1.76.05,2.66.15.9.1,1.7.32,2.4.66.69.34,1.26.82,1.7,1.47.44.64.66,1.51.66,2.59Z"/>
        <path class="cls-1" d="m243.55,116.16c0,1.29-.53,2.5-1.58,3.63-1.06,1.13-2.42,2.16-4.1,3.09s-3.54,1.74-5.6,2.43c-2.06.7-4.09,1.29-6.1,1.78s-3.9.86-5.68,1.12c-1.78.26-3.18.39-4.21.39s-2.02-.09-3.13-.27c-1.11-.18-2.02-.58-2.74-1.2-.41-.31-.77-1-1.08-2.09s-.61-2.37-.89-3.86c-.28-1.49-.53-3.1-.73-4.83-.21-1.72-.37-3.41-.5-5.06-.13-1.65-.23-3.17-.31-4.56-.08-1.39-.12-2.47-.12-3.24,0-1.29.04-2.84.12-4.67.08-1.83.19-3.78.35-5.87s.36-4.21.62-6.37c.26-2.16.55-4.21.89-6.14.33-1.93.75-3.67,1.24-5.21.49-1.54,1.01-2.75,1.58-3.63.98-1.39,2.21-2.09,3.71-2.09,1.03,0,1.9.35,2.63,1.04.72.7,1.3,1.6,1.74,2.7.44,1.11.77,2.34,1.01,3.71.23,1.37.4,2.72.5,4.06.1,1.34.15,2.58.15,3.71v2.7c0,4.02-.09,7.99-.27,11.93-.18,3.94-.27,7.92-.27,11.93v3.01c2.32-.72,4.84-1.4,7.57-2.05,2.73-.64,5.33-.97,7.8-.97.88,0,1.76.05,2.66.15.9.1,1.7.32,2.4.66.69.34,1.26.82,1.7,1.47.44.64.66,1.51.66,2.59Z"/>
      </g>
      <path class="cls-2" d="m16.24,56.72c-6.72,13.44,22.47,45.43,28.19,53.07.2.27,4.98,6.63,4.98,6.63h0s5.8,5.96,9.95,4.98c3.14-.75,4.98-5.23,4.98-6.63,0-3.32.29-8.89,0-9.95-3.48-12.99-.36-26.04-6.63-51.41-.61-2.48-1.67-6.49-4.98-8.29-2.55-1.39-8.29,0-11.61,0-7.13,0-7.73.37-11.61,1.66-4.98,1.66-9.95,3.32-13.27,9.95Z"/>
      <g>
        <path class="cls-1" d="m25.27,43.13c-3.51.4-7.07-.82-9.84-2.78s-4.84-4.59-6.63-7.31c-2.81-4.28-5.01-8.87-6.54-13.64.27-.08.55.09.77.26,6.71,5.06,9.73,13.61,17.4,17.44.72.36,1.89.54,2.17-.15.1-.25.03-.53-.05-.79-2.39-8.1-4.77-16.21-7.16-24.31,4.71,5.66,8.46,11.96,11.07,18.61.79,2.02,1.58,4.21,3.48,5.53,2.96-6.33,1.87-13.5,2.46-20.33.31-3.64,1.11-7.23,1.9-10.81,1.4,8.78,2.81,17.62,2.36,26.47-.02.43-.03.9.28,1.23.44.47,1.32.38,1.83-.02s.75-1.01.96-1.59c2.25-6.2,4.19-12.48,5.82-18.84.83,5.4,1.53,10.89.7,16.29-.21,1.34-.51,2.7-1.19,3.91-.74,1.32-1.88,2.42-3.07,3.43-5.02,4.26-11.7,7.39-18.61,6.95"/>
        <path class="cls-1" d="m25.27,40.88c-5.46.52-10-2.76-13.13-6.96-3.38-4.55-5.96-9.73-7.71-15.11l-2.17,2.85.4.04-1.14-.31c2.7,1.63,4.79,4.62,6.7,7.07,2.01,2.58,3.98,5.23,6.44,7.4,2.07,1.83,6.56,5.6,9.3,2.96,1.72-1.66.46-4.2-.1-6.11-.65-2.22-1.31-4.45-1.96-6.67-1.45-4.93-2.9-9.85-4.35-14.78l-3.76,2.19c3.19,3.86,5.95,8.07,8.21,12.55,1.03,2.04,1.89,4.15,2.75,6.26.93,2.28,2.03,4.18,4.04,5.68.91.68,2.62.21,3.08-.81,2.23-4.93,2.46-10.19,2.54-15.52.04-2.62.08-5.24.43-7.84.38-2.8,1.01-5.56,1.62-8.32h-4.34c.77,4.84,1.55,9.68,1.99,14.57.22,2.45.36,4.91.37,7.37.01,2.12-.76,5.2.95,6.84s4.44.83,5.65-.98,1.76-4.4,2.46-6.49c1.55-4.63,2.93-9.32,4.15-14.06h-4.34c.57,3.77,1.07,7.57.98,11.39-.04,1.78-.16,3.59-.6,5.31s-1.31,2.87-2.57,4.04c-4.79,4.42-11.23,7.35-17.82,7-2.89-.15-2.89,4.35,0,4.5,7.85.42,15.73-3.22,21.32-8.61,3.17-3.06,3.94-7.03,4.14-11.28.22-4.54-.43-9.07-1.11-13.54-.34-2.27-3.82-2.02-4.34,0-.92,3.57-1.93,7.11-3.04,10.62-.53,1.68-1.08,3.36-1.66,5.03-.31.91-.64,1.82-.96,2.73-.03.08-.4.93-.4.94-.17-.34,1.27.07.42-.28l.99.58c.14.63.19.7.17.19.02-.33.03-.66.04-.98.02-.49.03-.98.04-1.48.02-1.15,0-2.29-.03-3.44-.07-2.38-.26-4.75-.5-7.12-.49-4.7-1.23-9.38-1.98-14.05-.35-2.21-3.88-2.08-4.34,0-1.18,5.32-2.09,10.57-2.19,16.02-.09,4.88.11,10.03-1.95,14.58l3.08-.81c-1.47-1.09-2.03-3.18-2.68-4.79-.92-2.29-1.95-4.53-3.1-6.71-2.32-4.38-5.14-8.46-8.3-12.28-1.47-1.77-4.36.14-3.76,2.19,1.22,4.13,2.43,8.26,3.65,12.39.61,2.07,1.22,4.13,1.82,6.2.28.95.56,1.91.84,2.86.25.86.91,2.18.81,3.05l.31-1.14.05-.11.99-.58c-.19.08-.12.11-.46-.13-.44-.31-.96-.54-1.42-.83-.89-.58-1.71-1.24-2.49-1.97-1.7-1.59-3.16-3.39-4.59-5.22s-2.78-3.62-4.3-5.32-3.69-4.27-6.18-4.49c-1.43-.13-2.59,1.55-2.17,2.85,2.02,6.19,4.99,12.16,9.02,17.3s9.68,8.7,16.17,8.08c1.21-.12,2.25-.95,2.25-2.25,0-1.13-1.03-2.37-2.25-2.25h0Z"/>
      </g>
    </g>
  </g>
</svg>